<svg width="100" height="100" viewBox="0 0 100 100" fill="none" xmlns="http://www.w3.org/2000/svg">
<path d="M65.2455 62.4844C65.2455 71.9509 56.3794 71.7321 55.4419 71.7321H37.3861V53.4978H55.4419C64.9419 53.4978 65.2455 60.6183 65.2455 62.4844ZM54.0513 46.1607C54.2009 46.1607 62.6317 46.3839 62.6317 38.0558C62.6317 34.5915 61.8482 30.0491 54.0513 30.0491H37.3861V46.1607H54.0513ZM100 16.6674V83.3326C99.987 87.7491 98.2268 91.981 95.1039 95.1039C91.9809 98.2269 87.749 99.987 83.3326 100H16.6674C12.2509 99.987 8.01902 98.2269 4.89608 95.1039C1.77314 91.981 0.0129551 87.7491 0 83.3326L0 16.6674C0.0129551 12.2509 1.77314 8.01902 4.89608 4.89608C8.01902 1.77314 12.2509 0.0129551 16.6674 0H83.3326C87.749 0.0129551 91.9809 1.77314 95.1039 4.89608C98.2268 8.01902 99.987 12.2509 100 16.6674ZM75.4576 63.808C75.4576 58.9933 73.9732 50.7969 64.5089 48.7746V48.6116C69.6227 46.4286 72.8437 42.3058 72.8437 36.192C72.8437 34.6295 73.2901 21.7321 55.5223 21.7321H27.1741V80.0647C55.7969 80.0647 58.3951 80.4397 63.6919 78.7902C66.8638 77.8036 75.4576 74.7768 75.4576 63.808Z" fill="black"/>
</svg>
