<svg class="svg-icon" style="width: 1em; height: 1em;vertical-align: middle;fill: currentColor;overflow: hidden;" viewBox="0 0 1024 1024" version="1.1" xmlns="http://www.w3.org/2000/svg"><path d="M931 0H279.3C228.1 0 186.2 41.9 186.2 93v23.2c0 13.9 9.3 23.2 23.3 23.2s23.3-9.3 23.3-23.2V93c0-25.6 20.9-46.5 46.5-46.5h651.7c25.6 0 46.5 20.9 46.5 46.5v650.8c0 25.6-20.9 46.5-46.5 46.5h-23.3c-14 0-23.3 9.3-23.3 23.2 0 13.9 9.3 23.2 23.3 23.2h23.3c51.2 0 93.1-41.8 93.1-93V93c0-51.1-41.9-93-93.1-93z" fill="#FFC64B" /><path d="M536.9 454.2H211.1c-14 0-23.3 9.3-23.3 23.2 0 13.9 9.3 23.2 23.3 23.2h325.8c14 0 23.3-9.3 23.3-23.2 0-14-9.3-23.2-23.3-23.2z" fill="#222222" /><path d="M814.6 452.1c-12.9 0-23.3 10.4-23.3 23.3v454.4c0 25.6-20.9 46.5-46.5 46.5H93.1c-25.6 0-46.5-20.9-46.5-46.5V418.4h0.1v-46.5h-0.1v-93c0-25.6 20.9-46.5 46.5-46.5h536.9c12.8 0 23.2-10.4 23.2-23.2 0-12.8-10.4-23.2-23.2-23.2H93.1C41.9 186 0 227.8 0 279v650.8c0 51.1 41.9 93 93.1 93h651.7c51.2 0 93.1-41.8 93.1-93V475.4c0-12.9-10.4-23.3-23.3-23.3z" fill="#222222" /><path d="M536.9 597.9H211.1c-14 0-23.3 9.3-23.3 23.2 0 13.9 9.3 23.2 23.3 23.2h325.8c14 0 23.3-9.3 23.3-23.2 0-13.9-9.3-23.2-23.3-23.2zM536.9 741.6H211.1c-14 0-23.3 9.3-23.3 23.2 0 13.9 9.3 23.2 23.3 23.2h325.8c14 0 23.3-9.3 23.3-23.2 0-13.9-9.3-23.2-23.3-23.2z" fill="#222222" /></svg>