<svg width="100" height="100" viewBox="0 0 100 100" fill="none" xmlns="http://www.w3.org/2000/svg">
<path d="M90.9375 0H9.0625C4.0625 0 0 4.0625 0 9.0625V90.9375C0 95.9375 4.0625 100 9.0625 100H90.9375C95.9375 100 100 95.9375 100 90.9375V9.0625C100 4.0625 95.9375 0 90.9375 0V0ZM39.308 25.3571C39.3973 30.5804 34.308 31.4509 33.3705 31.4732C30.0446 31.4732 27.3214 28.7946 27.3214 25.4464C27.3437 17.5893 39.1741 17.5223 39.308 25.3571V25.3571ZM74.2857 77.0089C59.6428 77.0089 66.6741 60.4911 68.7053 53.2143C71.8527 42.8571 58.6161 40.0446 55.3348 53.3705L49.5759 76.4286H39.5089L41.317 69.1741C34.2857 80.7366 20.2009 79.0848 20.2009 68.2143C20.2232 65.0223 20.4018 65.0893 25.3348 44.9777H18.2366L20.4018 37.0312H37.4554C29.9554 66.875 30.1786 65.3571 30.1116 67.8795C30.1116 72.5446 39.2411 70.8929 42.9241 62.7009L47.3437 44.9777H40.1339L42.2991 37.0312H57.6562L55.6696 46.0714C64.7098 29.2187 84.2187 35.4018 78.3928 54.5536C75.2232 65.9598 75.1339 65.8705 75.067 67.6786C75.067 71.1384 78.9732 72.7232 82.1652 63.9062L86.1607 65.4018C83.817 73.5937 79.5982 77.0089 74.2857 77.0089Z" fill="black"/>
</svg>
