<svg width="100" height="100" viewBox="0 0 100 100" fill="none" xmlns="http://www.w3.org/2000/svg">
<path d="M89.2858 0H10.7143C4.79911 0 0 4.79911 0 10.7143V89.2857C0 95.2009 4.79911 100 10.7143 100H89.2858C95.201 100 100 95.2009 100 89.2857V10.7143C100 4.79911 95.201 0 89.2858 0ZM54.4197 77.9911C54.4197 87.7232 48.7054 92.1652 40.3795 92.1652C32.8572 92.1652 28.5045 88.2812 26.2723 83.5714L33.9286 78.9509C35.4018 81.5625 36.7411 83.7723 39.9777 83.7723C43.0581 83.7723 45.0224 82.567 45.0224 77.8571V45.9152H54.4197V77.9911ZM76.6518 92.1652C67.9241 92.1652 62.2768 88.0134 59.5313 82.567L67.1875 78.1473C69.1965 81.4286 71.8304 83.8616 76.4509 83.8616C80.3349 83.8616 82.8349 81.9196 82.8349 79.2188C82.8349 76.0045 80.2902 74.8661 75.9822 72.9688L73.6384 71.9643C66.8527 69.0848 62.3661 65.4464 62.3661 57.7902C62.3661 50.7366 67.7456 45.3795 76.1161 45.3795C82.0983 45.3795 86.384 47.4554 89.4643 52.9018L82.1429 57.5893C80.5358 54.7098 78.7947 53.5714 76.0938 53.5714C73.3483 53.5714 71.6072 55.3125 71.6072 57.5893C71.6072 60.4018 73.3483 61.5402 77.3884 63.3036L79.7322 64.308C87.7233 67.7232 92.2099 71.2277 92.2099 79.0848C92.2099 87.5223 85.5581 92.1652 76.6518 92.1652Z" fill="black"/>
</svg>
