<svg width="115" height="100" viewBox="0 0 115 100" fill="none" xmlns="http://www.w3.org/2000/svg">
<path d="M93.3431 32.4062C92.1378 32.0044 90.9325 31.625 89.7272 31.2679C89.9281 30.442 90.1067 29.6162 90.2852 28.7903C93.0306 15.4875 91.2227 4.79606 85.1292 1.26946C79.259 -2.10089 69.6837 1.40338 59.9967 9.84043C59.0369 10.6663 58.0995 11.5368 57.2067 12.4073C56.604 11.8269 55.9791 11.2466 55.3541 10.6886C45.1984 1.67123 35.0204 -2.12321 28.927 1.4257C23.0791 4.81838 21.3381 14.8848 23.7933 27.4734C24.0389 28.7234 24.3067 29.951 24.6192 31.2009C23.1907 31.6027 21.7845 32.0491 20.4676 32.5178C8.54864 36.647 0 43.1645 0 49.9053C0 56.8692 9.10664 63.8554 21.4944 68.0963C22.4988 68.4311 23.5032 68.7659 24.5299 69.056C24.1951 70.3952 23.9049 71.7121 23.6371 73.0737C21.2935 85.4614 23.1237 95.2823 28.9716 98.6526C34.9981 102.135 45.1314 98.5634 54.997 89.9254C55.7782 89.2335 56.5594 88.5193 57.3406 87.7604C58.3227 88.7201 59.3494 89.6353 60.3761 90.5281C69.9292 98.7419 79.3706 102.068 85.1962 98.6973C91.2227 95.2153 93.1868 84.6579 90.6423 71.8014C90.4415 70.8193 90.2183 69.8149 89.9727 68.7882C90.687 68.5873 91.3789 68.3641 92.0708 68.1409C104.95 63.8777 114.279 56.9808 114.279 49.9053C114.279 43.1422 105.485 36.5801 93.3431 32.4062ZM63.1438 13.4563C71.447 6.22456 79.1921 3.38988 82.7187 5.42103C86.4908 7.58609 87.9416 16.3356 85.5756 27.8305C85.4194 28.5894 85.2632 29.326 85.0623 30.0626C80.1072 28.9466 75.0852 28.143 70.0408 27.6966C67.1392 23.5451 63.9697 19.5721 60.5324 15.8446C61.4029 15.0187 62.251 14.2375 63.1438 13.4563ZM37.3194 61.4895C38.4577 63.4313 39.6184 65.3732 40.846 67.2704C37.364 66.891 33.9044 66.3329 30.4894 65.5964C31.4715 62.3823 32.6991 59.0566 34.1276 55.6639C35.1543 57.6281 36.2034 59.5699 37.3194 61.4895ZM30.5564 34.6382C33.7705 33.924 37.1855 33.3436 40.7344 32.8972C39.5514 34.7498 38.3907 36.647 37.2971 38.5666C36.2034 40.4638 35.132 42.4057 34.1276 44.3698C32.7214 41.0441 31.5384 37.7854 30.5564 34.6382ZM36.6721 50.0169C38.1452 46.9367 39.7523 43.9234 41.4486 40.9548C43.1449 37.9862 44.9752 35.1069 46.8947 32.2723C50.2428 32.0267 53.6578 31.8928 57.1397 31.8928C60.6217 31.8928 64.059 32.0267 67.3847 32.2723C69.2819 35.0846 71.0898 37.9639 72.8085 40.9102C74.5272 43.8565 76.1342 46.8697 77.652 49.9276C76.1565 53.0078 74.5495 56.0433 72.8308 59.0342C71.1345 62.0028 69.3265 64.8821 67.4293 67.7391C64.1036 67.9846 60.644 68.0963 57.1397 68.0963C53.6354 68.0963 50.2428 67.9846 46.9617 67.7838C45.0198 64.9491 43.1896 62.0475 41.4709 59.0789C39.7523 56.1103 38.1675 53.097 36.6721 50.0169ZM76.9824 61.4448C78.1207 59.4806 79.1921 57.4941 80.2411 55.4853C81.6696 58.7217 82.9195 62.0028 84.0132 65.3732C80.5536 66.1544 77.0493 66.757 73.5227 67.1588C74.728 65.2839 75.8664 63.3644 76.9824 61.4448ZM80.1965 44.3698C79.1474 42.4057 78.0761 40.4415 76.96 38.5219C75.8664 36.6247 74.728 34.7498 73.5451 32.8972C77.1386 33.3436 80.5759 33.9463 83.79 34.6829C82.7633 37.9862 81.558 41.2004 80.1965 44.3698ZM57.1844 19.2596C59.528 21.8041 61.7377 24.4825 63.7911 27.2502C59.3717 27.0493 54.93 27.0493 50.5106 27.2502C52.698 24.3709 54.9523 21.6925 57.1844 19.2596ZM31.2929 5.57727C35.0427 3.38988 43.3682 6.51472 52.14 14.2822C52.698 14.7732 53.256 15.3089 53.8363 15.8446C50.3767 19.5721 47.1849 23.5451 44.261 27.6966C39.2166 28.143 34.2169 28.9242 29.2618 30.0179C28.9716 28.8796 28.7261 27.7189 28.4806 26.5583C26.3825 15.7553 27.7663 7.60841 31.2929 5.57727ZM25.8245 64.4134C24.887 64.1456 23.9719 63.8554 23.0568 63.5429C18.3026 62.0475 12.9011 59.6815 8.99504 56.579C6.7407 55.0166 5.22293 52.606 4.79884 49.9053C4.79884 45.8207 11.852 40.5977 22.03 37.0488C23.3023 36.6024 24.5969 36.2006 25.8914 35.8212C27.4092 40.6647 29.2395 45.4189 31.3599 50.0169C29.2171 54.6818 27.3646 59.503 25.8245 64.4134ZM51.8498 86.2872C48.167 89.6576 43.9038 92.336 39.2612 94.1663C36.7837 95.3493 33.9267 95.4609 31.3822 94.4565C27.8333 92.403 26.3602 84.5239 28.369 73.9218C28.6145 72.6719 28.8823 71.422 29.1948 70.1944C34.1945 71.2657 39.2389 72.0023 44.3502 72.3817C47.2965 76.5556 50.5329 80.5509 53.9926 84.3007C53.2783 84.9927 52.5641 85.6623 51.8498 86.2872ZM57.3183 80.8634C55.0416 78.4082 52.765 75.6851 50.5553 72.7612C52.698 72.8505 54.9077 72.8951 57.1397 72.8951C59.4387 72.8951 61.693 72.8505 63.9251 72.7389C61.8716 75.5735 59.6619 78.2743 57.3183 80.8634ZM86.4908 87.5595C86.2899 90.2826 84.9507 92.8271 82.8079 94.5457C79.259 96.5992 71.6925 93.9208 63.5233 86.9122C62.5858 86.1087 61.6484 85.2382 60.6886 84.3454C64.1036 80.5733 67.2508 76.5779 70.1077 72.3817C75.2191 71.9576 80.3081 71.1764 85.3301 70.0381C85.5533 70.9532 85.7542 71.8684 85.9328 72.7612C87.0265 77.5824 87.205 82.6044 86.4908 87.5595ZM90.5531 63.5652C89.9281 63.7661 89.3031 63.967 88.6558 64.1456C87.0934 59.2798 85.1739 54.5255 82.9642 49.9053C85.1069 45.3519 86.9149 40.6647 88.4326 35.8658C89.5933 36.2006 90.7093 36.5578 91.7807 36.9149C102.182 40.4861 109.481 45.7983 109.481 49.8606C109.481 54.2354 101.691 59.8824 90.5531 63.5652ZM57.1397 60.2172C62.7867 60.2172 67.3624 55.6416 67.3624 49.9945C67.3624 44.3475 62.7867 39.7719 57.1397 39.7719C51.4927 39.7719 46.9171 44.3475 46.9171 49.9945C46.9171 55.6416 51.4927 60.2172 57.1397 60.2172Z" fill="black"/>
</svg>
