<svg class="svg-icon" style="width: 1em; height: 1em;vertical-align: middle;fill: currentColor;overflow: hidden;" viewBox="0 0 1024 1024" version="1.1" xmlns="http://www.w3.org/2000/svg"><path d="M631.466667 887.466667h-341.333334c-10.24 0-17.066667-6.826667-17.066666-17.066667s6.826667-17.066667 17.066666-17.066667h341.333334c10.24 0 17.066667 6.826667 17.066666 17.066667s-6.826667 17.066667-17.066666 17.066667z" fill="" /><path d="M460.8 887.466667c-10.24 0-17.066667-6.826667-17.066667-17.066667v-136.533333c0-10.24 6.826667-17.066667 17.066667-17.066667s17.066667 6.826667 17.066667 17.066667v136.533333c0 10.24-6.826667 17.066667-17.066667 17.066667zM1024 477.866667h-307.2v273.066666h307.2v-273.066666z m-187.733333 68.266666h68.266666c10.24 0 17.066667 6.826667 17.066667 17.066667s-6.826667 17.066667-17.066667 17.066667h-68.266666c-10.24 0-17.066667-6.826667-17.066667-17.066667s6.826667-17.066667 17.066667-17.066667z m68.266666 136.533334h-68.266666c-10.24 0-17.066667-6.826667-17.066667-17.066667s6.826667-17.066667 17.066667-17.066667h68.266666c10.24 0 17.066667 6.826667 17.066667 17.066667s-6.826667 17.066667-17.066667 17.066667zM1024 443.733333v-51.2c0-27.306667-23.893333-51.2-51.2-51.2h-204.8c-27.306667 0-51.2 23.893333-51.2 51.2V443.733333h307.2zM716.8 785.066667v51.2c0 27.306667 23.893333 51.2 51.2 51.2h204.8c27.306667 0 51.2-23.893333 51.2-51.2V785.066667h-307.2z" fill="" /><path d="M0 614.4v30.72C0 703.146667 47.786667 750.933333 105.813333 750.933333h559.786667c10.24 0 17.066667-6.826667 17.066667-17.066666V614.4H0zM815.786667 136.533333H105.813333C47.786667 136.533333 0 184.32 0 242.346667V580.266667h682.666667v-187.733334c0-47.786667 37.546667-85.333333 85.333333-85.333333h136.533333c10.24 0 17.066667-6.826667 17.066667-17.066667V242.346667C921.6 184.32 873.813333 136.533333 815.786667 136.533333z m-184.32 307.2h-443.733334c-10.24 0-17.066667-6.826667-17.066666-17.066666s6.826667-17.066667 17.066666-17.066667h443.733334c10.24 0 17.066667 6.826667 17.066666 17.066667s-6.826667 17.066667-17.066666 17.066666z m102.4-136.533333h-546.133334c-10.24 0-17.066667-6.826667-17.066666-17.066667s6.826667-17.066667 17.066666-17.066666h546.133334c10.24 0 17.066667 6.826667 17.066666 17.066666s-6.826667 17.066667-17.066666 17.066667z" fill="" /></svg>