<svg width="126" height="100" viewBox="0 0 126 100" fill="none" xmlns="http://www.w3.org/2000/svg">
<path d="M54.4817 99.9026L42.5667 96.4453C41.3166 96.0937 40.6134 94.785 40.965 93.5349L67.6272 1.69209C67.9788 0.441991 69.2875 -0.261186 70.5376 0.0904024L82.4525 3.54769C83.7026 3.89928 84.4058 5.20797 84.0542 6.45807L57.392 98.3009C57.0209 99.551 55.7318 100.274 54.4817 99.9026ZM32.2143 77.9869L40.7111 68.9237C41.6096 67.9666 41.551 66.4431 40.5548 65.5641L22.8582 49.9965L40.5548 34.4289C41.551 33.55 41.6291 32.0264 40.7111 31.0693L32.2143 22.0061C31.3354 21.0685 29.8509 21.0099 28.8938 21.9084L0.747127 48.2776C-0.249042 49.1957 -0.249042 50.7778 0.747127 51.6959L28.8938 78.0845C29.8509 78.9831 31.3354 78.944 32.2143 77.9869ZM96.1254 78.1041L124.272 51.7154C125.268 50.7973 125.268 49.2152 124.272 48.2972L96.1254 21.8889C95.1879 21.0099 93.7034 21.049 92.8049 21.9866L84.3081 31.0498C83.4096 32.0069 83.4682 33.5304 84.4644 34.4094L102.161 49.9965L84.4644 65.5641C83.4682 66.4431 83.3901 67.9666 84.3081 68.9237L92.8049 77.9869C93.6838 78.944 95.1683 78.9831 96.1254 78.1041Z" fill="black"/>
</svg>
